<svg width="30" height="30" viewBox="0 0 30 30" fill="none" xmlns="http://www.w3.org/2000/svg">
<ellipse cx="15" cy="14.9312" rx="15" ry="14.9312" fill="white"/>
<path fill-rule="evenodd" clip-rule="evenodd" d="M6.00002 9.45707C5.99997 8.76918 6.20449 8.09668 6.58783 7.52432C6.97116 6.95195 7.51613 6.50536 8.15406 6.24083C8.79199 5.97629 9.49432 5.90566 10.1725 6.03783C10.8507 6.17 11.4744 6.49906 11.965 6.98353L12.372 7.38566L12.927 7.23835C14.2841 6.87535 15.7134 6.87459 17.0709 7.23614C18.4284 7.59768 19.6663 8.30879 20.66 9.29788C21.6536 10.287 22.368 11.5191 22.7313 12.8704C23.0945 14.2216 23.0937 15.6443 22.729 16.9952L22.581 17.5476L22.985 17.9527C23.6414 18.6061 24.0102 19.4923 24.0102 20.4163C24.0102 21.3403 23.6414 22.2265 22.985 22.8799C22.3286 23.5333 21.4383 23.9004 20.51 23.9004C19.5817 23.9004 18.6914 23.5333 18.035 22.8799L17.628 22.4778L17.073 22.6251C15.7158 22.9883 14.2865 22.9892 12.9288 22.6278C11.5712 22.2663 10.3331 21.5553 9.33931 20.5661C8.3455 19.577 7.631 18.3447 7.26774 16.9934C6.90447 15.642 6.90526 14.2192 7.27002 12.8683L7.41802 12.3158L7.01402 11.9107C6.36284 11.2588 5.99815 10.3764 6.00002 9.45707ZM9.50003 3.98243C8.46314 3.98247 7.44738 4.27426 6.56992 4.82416C5.69245 5.37405 4.98902 6.15964 4.54076 7.09032C4.09251 8.021 3.91768 9.05884 4.03645 10.0842C4.15522 11.1095 4.56274 12.0805 5.21202 12.8852C5.07081 13.5583 4.99976 14.2441 5.00002 14.9317C5.00002 20.4293 9.47703 24.8856 15 24.8856C15.704 24.8856 16.392 24.813 17.056 24.6746C18.1128 25.5189 19.4455 25.9452 20.7985 25.8717C22.1516 25.7983 23.4298 25.2302 24.388 24.2764C25.3462 23.3226 25.9169 22.0503 25.9907 20.7035C26.0646 19.3567 25.6363 18.0301 24.788 16.9782C24.928 16.3173 25 15.6325 25 14.9317C25 9.43418 20.523 4.97782 15 4.97782C14.296 4.97782 13.608 5.05048 12.944 5.18884C11.9683 4.40667 10.7528 3.98089 9.50003 3.98243ZM13.642 12.274C13.775 12.0222 14.229 11.6967 14.932 11.6967C16.139 11.6967 16.804 12.1665 17.11 12.3994C17.3209 12.5597 17.587 12.63 17.85 12.5949C18.1129 12.5598 18.351 12.4222 18.512 12.2123C18.673 12.0024 18.7436 11.7375 18.7084 11.4758C18.6731 11.2141 18.5349 10.977 18.324 10.8168C17.834 10.4445 16.747 9.70592 14.932 9.70592C13.664 9.70592 12.425 10.2972 11.824 11.4379C11.6201 11.818 11.5198 12.2447 11.5333 12.6754C11.5469 13.1062 11.6736 13.5258 11.901 13.8925C12.33 14.6022 13.073 15.1089 13.949 15.3438L15.503 15.7599C16.101 15.9201 17.01 16.4736 16.683 17.2191C16.485 17.669 15.786 18.1667 14.756 18.1667C13.866 18.1667 13.08 18.0134 12.356 17.464C12.1449 17.3075 11.8803 17.2401 11.6197 17.2766C11.359 17.313 11.1233 17.4502 10.9636 17.6585C10.804 17.8668 10.7333 18.1294 10.7669 18.3893C10.8004 18.6491 10.9356 18.8854 11.143 19.0467C12.113 19.7832 13.12 20.1575 14.535 20.1575C16.114 20.1575 17.837 19.5623 18.515 18.0174C18.915 17.1066 18.783 16.1521 18.285 15.3866C17.516 14.2081 16.194 13.8666 14.913 13.5372C14.7648 13.4991 14.6168 13.4603 14.469 13.4207C13.943 13.2804 13.329 12.8703 13.642 12.274Z" fill="#FF5E14"/>
</svg>
