<svg width="40" height="40" viewBox="0 0 40 40" fill="none" xmlns="http://www.w3.org/2000/svg">
<path d="M32.8517 5.60602L3.73798 13.8176C3.49305 13.8867 3.27504 14.0289 3.11309 14.2252C2.95114 14.4215 2.85296 14.6625 2.83168 14.9161C2.8104 15.1697 2.86702 15.4237 2.99399 15.6443C3.12095 15.8648 3.31221 16.0414 3.54219 16.1503L16.9189 22.4866C17.1798 22.6102 17.3899 22.8203 17.5135 23.0812L23.8498 36.4579C23.9587 36.6879 24.1353 36.8791 24.3558 37.0061C24.5764 37.1331 24.8304 37.1897 25.084 37.1684C25.3376 37.1471 25.5786 37.0489 25.7749 36.887C25.9712 36.725 26.1134 36.507 26.1825 36.2621L34.3941 7.14841C34.4544 6.93455 34.4566 6.70848 34.4005 6.49348C34.3444 6.27848 34.232 6.08232 34.0749 5.9252C33.9178 5.76808 33.7216 5.65568 33.5066 5.59958C33.2916 5.54348 33.0655 5.5457 32.8517 5.60602Z" stroke="white" stroke-width="3" stroke-linecap="round" stroke-linejoin="round"/>
<path d="M17.3223 22.6778L24.3934 15.6067" stroke="white" stroke-width="3" stroke-linecap="round" stroke-linejoin="round"/>
</svg>
