<svg width="86" height="66" viewBox="0 0 86 66" fill="none" xmlns="http://www.w3.org/2000/svg">
<g opacity="0.7">
<g clip-path="url(#clip0)">
<path fill-rule="evenodd" clip-rule="evenodd" d="M40.9948 37.4695C40.8289 36.372 41.1697 35.2999 41.7871 34.6194C42.5307 33.7999 42.6729 32.5278 42.1318 31.534C40.8 29.0878 41.2206 27.6772 41.7335 26.8998C42.4006 25.889 43.6796 25.2564 44.75 25.2564L63.0833 25.2564C64.0697 25.2564 64.9454 24.5608 65.2574 23.5295C65.5693 22.4981 65.2474 21.3625 64.4583 20.7103L60.0043 17.0288C59.9798 17.0019 59.9555 16.9752 59.9313 16.9487C59.3558 16.3173 58.8894 15.8057 58.5668 15.1882C58.2764 14.6324 58.1731 14.1191 58.3824 13.4269C58.5081 13.0113 58.6547 12.8065 58.75 12.7041C58.8467 12.6002 58.9578 12.5298 59.0963 12.4822C59.4228 12.37 59.8301 12.4146 60.0572 12.4951L60.0984 12.511C60.1382 12.5265 60.1992 12.5504 60.2792 12.5822C60.4392 12.6459 60.6748 12.7412 60.9687 12.8646C61.5576 13.1118 62.3746 13.4692 63.283 13.9081C65.153 14.8115 67.2116 15.9665 68.5268 17.1261C71.2927 19.5648 73.3875 22.9862 74.7928 26.4578C76.2075 29.9523 76.8334 33.2725 76.8334 35.359C76.8334 40.0719 75.8708 43.6566 73.4431 46.134C70.965 48.6627 66.5028 50.5128 58.5 50.5128C57.8468 50.5128 57.2114 50.5235 56.5805 50.5341C55.497 50.5524 54.4264 50.5705 53.3002 50.5336C51.5686 50.477 50.0119 50.2897 48.7114 49.8396C47.4378 49.3988 46.5147 48.7435 45.8873 47.8079C45.2589 46.8711 44.75 45.3894 44.75 42.936C44.75 41.9793 44.2595 41.1048 43.4832 40.677C41.7792 39.738 41.1488 38.4874 40.9948 37.4695ZM60.7917 10.1026L61.5387 7.71494L61.5164 7.70646C60.5956 7.36819 59.1766 7.16342 57.7319 7.65992C56.1497 8.20366 54.7288 9.53328 54.0343 11.8296C53.327 14.1682 53.7965 16.1806 54.5947 17.7085C55.136 18.7446 55.8631 19.6097 56.4003 20.2052L44.75 20.2052C42.3828 20.2052 39.6514 21.4669 38.0268 23.9289C36.4902 26.2574 36.1674 29.2916 37.4658 32.5682C36.5471 34.239 36.1679 36.2766 36.4739 38.2999C36.8298 40.6538 38.0825 42.8397 40.2171 44.4171C40.3972 46.9767 41.0585 49.1064 42.2016 50.8106C43.5592 52.8347 45.4194 53.9947 47.3381 54.6588C49.2299 55.3136 51.2746 55.5209 53.1643 55.5827C54.3758 55.6223 55.6563 55.6017 56.8171 55.5829C57.419 55.5732 57.9888 55.5641 58.5 55.5641C66.9973 55.5641 72.8476 53.6257 76.557 49.8404C80.3168 46.0038 81.4167 40.7488 81.4167 35.359C81.4167 32.3941 80.5846 28.3672 78.9785 24.3998C77.3632 20.4094 74.8746 16.254 71.3899 13.1817C69.5798 11.5857 67.0551 10.2151 65.1231 9.28178C64.1305 8.80227 63.2418 8.41352 62.6003 8.1442C62.2789 8.0093 62.0181 7.90373 61.8356 7.83109C61.7443 7.79475 61.6724 7.76661 61.6222 7.74711L61.5634 7.72439L61.5467 7.71798L61.5387 7.71494C61.5387 7.71494 61.5387 7.71494 60.7917 10.1026Z" fill="#008AC6"/>
<path fill-rule="evenodd" clip-rule="evenodd" d="M39.0208 32.8335C39.0208 34.2283 40.0469 35.3591 41.3125 35.3591L53.9167 35.3591C55.1823 35.3591 56.2083 34.2283 56.2083 32.8335C56.2083 31.4386 55.1823 30.3078 53.9167 30.3078L41.3125 30.3078C40.0469 30.3078 39.0208 31.4386 39.0208 32.8335Z" fill="#008AC6"/>
<path fill-rule="evenodd" clip-rule="evenodd" d="M40.1667 42.936C40.1667 44.3309 41.1927 45.4616 42.4583 45.4616L56.2083 45.4616C57.474 45.4616 58.5 44.3309 58.5 42.936C58.5 41.5411 57.474 40.4104 56.2083 40.4104L42.4583 40.4104C41.1927 40.4104 40.1667 41.5411 40.1667 42.936Z" fill="#008AC6"/>
</g>
<path d="M64 60.96L51 12.8325H38V60.96H64Z" fill="white"/>
<path fill-rule="evenodd" clip-rule="evenodd" d="M47.46 42.6956C47.635 41.5981 47.2756 40.5259 46.6245 39.8454C45.8403 39.0259 45.6904 37.7538 46.261 36.76C47.6654 34.3138 47.222 32.9031 46.681 32.1257C45.9776 31.1149 44.6288 30.4823 43.5001 30.4823L24.1667 30.4823C23.1265 30.4823 22.203 29.7867 21.8741 28.7553C21.5451 27.724 21.8846 26.5883 22.7167 25.9361L27.4137 22.2545C27.4395 22.2276 27.4652 22.2009 27.4906 22.1745C28.0975 21.5431 28.5894 21.0314 28.9296 20.4139C29.2358 19.8581 29.3448 19.3448 29.124 18.6526C28.9914 18.237 28.8369 18.0322 28.7364 17.9298C28.6344 17.8258 28.5172 17.7554 28.3712 17.7078C28.0268 17.5956 27.5974 17.6403 27.3579 17.7208L27.3144 17.7367C27.2724 17.7522 27.2081 17.7761 27.1238 17.8079C26.955 17.8715 26.7066 17.9669 26.3966 18.0902C25.7756 18.3375 24.9141 18.6949 23.9561 19.1338C21.9841 20.0372 19.8132 21.1923 18.4263 22.3518C15.5095 24.7905 13.3005 28.212 11.8185 31.6837C10.3267 35.1783 9.66664 38.4984 9.66664 40.585C9.66664 45.298 10.6817 48.8827 13.2419 51.3602C15.855 53.8889 20.5607 55.7391 29 55.7391C29.6889 55.7391 30.3588 55.7498 31.0242 55.7604C32.1668 55.7787 33.2958 55.7967 34.4834 55.7599C36.3095 55.7033 37.9511 55.516 39.3225 55.0659C40.6656 54.625 41.639 53.9697 42.3007 53.0342C42.9633 52.0974 43.5 50.6156 43.5 48.1621C43.5 47.2055 44.0172 46.3309 44.8359 45.9031C46.6328 44.9641 47.2977 43.7135 47.46 42.6956ZM26.5833 15.3282L25.7955 12.9405L25.819 12.9321C26.7901 12.5938 28.2865 12.389 29.81 12.8855C31.4785 13.4293 32.9769 14.7589 33.7093 17.0552C34.4552 19.3939 33.96 21.4063 33.1183 22.9343C32.5475 23.9704 31.7807 24.8355 31.2142 25.431L43.5001 25.431C45.9963 25.431 48.8767 26.6927 50.5899 29.1547C52.2103 31.4833 52.5507 34.5175 51.1815 37.7942C52.1503 39.465 52.5502 41.5026 52.2276 43.5259C51.8522 45.8799 50.5312 48.0659 48.2801 49.6433C48.0903 52.2029 47.3928 54.3326 46.1874 56.0368C44.7557 58.0611 42.794 59.221 40.7707 59.8852C38.7757 60.54 36.6195 60.7473 34.6267 60.8091C33.3492 60.8487 31.9988 60.828 30.7747 60.8093C30.1399 60.7996 29.5391 60.7904 29 60.7904C20.0392 60.7904 13.8698 58.8521 9.95805 55.0667C5.99324 51.23 4.83331 45.9749 4.83331 40.585C4.83331 37.6201 5.71083 33.5931 7.40449 29.6256C9.10793 25.6352 11.7322 21.4798 15.407 18.4074C17.3159 16.8114 19.9783 15.4408 22.0157 14.5074C23.0624 14.0279 23.9996 13.6391 24.6761 13.3698C25.0149 13.2349 25.29 13.1293 25.4825 13.0567C25.5788 13.0203 25.6546 12.9922 25.7075 12.9727L25.7695 12.95L25.7871 12.9436L25.7955 12.9405C25.7955 12.9405 25.7955 12.9405 26.5833 15.3282Z" fill="#008AC6"/>
<path fill-rule="evenodd" clip-rule="evenodd" d="M49.5417 38.0594C49.5417 39.4543 48.4597 40.5851 47.125 40.5851L33.8333 40.5851C32.4986 40.5851 31.4167 39.4543 31.4167 38.0594C31.4167 36.6646 32.4986 35.5338 33.8333 35.5338L47.125 35.5338C48.4597 35.5338 49.5417 36.6646 49.5417 38.0594Z" fill="#008AC6"/>
<path fill-rule="evenodd" clip-rule="evenodd" d="M48.3333 48.1621C48.3333 49.557 47.2513 50.6878 45.9167 50.6878L31.4167 50.6878C30.082 50.6878 29 49.557 29 48.1621C29 46.7673 30.082 45.6365 31.4167 45.6365L45.9167 45.6365C47.2513 45.6365 48.3333 46.7673 48.3333 48.1621Z" fill="#008AC6"/>
</g>
<defs>
<clipPath id="clip0">
<rect width="60.6152" height="55" fill="white" transform="matrix(-4.18255e-08 1 1 4.56824e-08 31 0)"/>
</clipPath>
</defs>
</svg>
