<svg width="40" height="40" viewBox="0 0 40 40" fill="none" xmlns="http://www.w3.org/2000/svg">
<path d="M15 33.7501H7.5C7.16848 33.7501 6.85054 33.6184 6.61612 33.3839C6.3817 33.1495 6.25 32.8316 6.25 32.5001V25.5178C6.25 25.3537 6.28233 25.1911 6.34515 25.0395C6.40797 24.8878 6.50004 24.75 6.61612 24.6339L25.3661 5.88394C25.6005 5.64952 25.9185 5.51782 26.25 5.51782C26.5815 5.51782 26.8995 5.64952 27.1339 5.88394L34.1161 12.8662C34.3505 13.1006 34.4822 13.4185 34.4822 13.7501C34.4822 14.0816 34.3505 14.3995 34.1161 14.6339L15 33.7501Z" stroke="white" stroke-width="3" stroke-linecap="round" stroke-linejoin="round"/>
<path d="M21.25 10L30 18.75" stroke="white" stroke-width="3" stroke-linecap="round" stroke-linejoin="round"/>
<path d="M33.75 33.7501H15L6.32953 25.0796" stroke="white" stroke-width="3" stroke-linecap="round" stroke-linejoin="round"/>
</svg>
