<svg width="40" height="40" viewBox="0 0 40 40" fill="none" xmlns="http://www.w3.org/2000/svg">
<path d="M12.1875 22.4999H29.6875C30.3505 22.4999 30.9864 22.2366 31.4552 21.7677C31.9241 21.2989 32.1875 20.663 32.1875 20C32.1875 19.3369 31.9241 18.7011 31.4552 18.2322C30.9864 17.7634 30.3505 17.5 29.6875 17.5H7.1875C4.49398 17.5 2.31046 19.7386 2.31046 22.5C2.31046 25.2614 4.49398 27.5 7.1875 27.5H29.9991C31.9882 27.5 33.8959 26.7098 35.3024 25.3033C36.7089 23.8968 37.4991 21.9891 37.4991 20C37.4991 18.0109 36.7089 16.1032 35.3024 14.6967C33.8959 13.2902 31.9882 12.5 29.9991 12.5H12.4991" stroke="white" stroke-width="3" stroke-linecap="round" stroke-linejoin="round"/>
</svg>
