<svg width="40" height="40" viewBox="0 0 40 40" fill="none" xmlns="http://www.w3.org/2000/svg">
<g clip-path="url(#clip0)">
<path d="M0 20C0 31.027 8.973 40 20 40C31.027 40 40 31.027 40 20C40 8.973 31.027 0 20 0C8.973 0 0 8.973 0 20ZM21.477 11.204L27.756 16.536C28.287 16.986 28.561 17.63 28.561 18.275C28.561 18.796 28.382 19.322 28.018 19.752C27.205 20.712 25.764 20.83 24.803 20.015L22.282 17.873V27.059C22.282 28.319 21.261 29.34 20.001 29.34C18.741 29.34 17.72 28.319 17.72 27.059V17.873L15.199 20.015C14.238 20.83 12.799 20.712 11.982 19.752C11.167 18.792 11.285 17.352 12.246 16.536L18.525 11.204C19.375 10.48 20.625 10.48 21.477 11.204Z" fill="#F89D1B"/>
</g>
<defs>
<clipPath id="clip0">
<rect width="40" height="40" fill="white" transform="translate(0 40) rotate(-90)"/>
</clipPath>
</defs>
</svg>
